The Big Bang Machine. BBC 832x468 x264 aac mp4 w/subtitles [aularon]

- - -
Synopsis
- - -
Professor Brian Cox visits Geneva to take a look around Cern's Large Hadron Collider before this vast, 27km long machine is sealed off and a simulation experiment begins to try and create the conditions that existed just a billionth of a second after the Big Bang. Cox joins the scientists who hope that the LHC will change our understanding of the early universe and solve some of its mysteries.


- - -
URL
- - -   
http://www.bbc.co.uk/programmes/b00dccnr.html


- - -
Technical Details
- - -
General
Complete name                    : BBC.The.Big.Bang.Machine/The_Big_Bang_Machine_-_The_Big_Bang_Machine_b00dccnr_default.mp4
Format                           : MPEG-4
Format profile                   : Base Media
Codec ID                         : isom
File size                        : 633 MiB
Duration                         : 58mn 57s
Overall bit rate                 : 1 502 Kbps
Movie name                       : The Big Bang Machine
Album                            : The Big Bang Machine
Performer                        : The Big Bang Machine
Genre                            : Factual,Science & Nature
Recorded date                    : 2008-09-04T21:00:00+01:00
Writing application              : Lavf53.6.0
Cover                            : Yes
Comment                          : Recorded using get_iplayer, by Aularon.
rtng                             : 2
stik                             : 1
desc                             : Brian Cox looks around Cern's LHC in Geneva before it is sealed off and the experiment to try and create conditions that existed a billionth of a second after the Big Bang begins.
tvnn                             : BBC Four
tvsh                             : The Big Bang Machine
tven                             : b00dccnr
catg                             : Factual,Science & Nature

Video
ID                               : 1
Format                           : AVC
Format/Info                      : Advanced Video Codec
Format profile                   : Main@L3.0
Format settings, CABAC           : Yes
Format settings, ReFrames        : 4 frames
Codec ID                         : avc1
Codec ID/Info                    : Advanced Video Coding
Duration                         : 58mn 57s
Bit rate mode                    : Constant
Bit rate                         : 1 404 Kbps
Width                            : 832 pixels
Height                           : 468 pixels
Display aspect ratio             : 16:9
Frame rate mode                  : Constant
Frame rate                       : 25.000 fps
Standard                         : PAL
Color space                      : YUV
Chroma subsampling               : 4:2:0
Bit depth                        : 8 bits
Scan type                        : Progressive
Bits/(Pixel*Frame)               : 0.144
Stream size                      : 591 MiB (93%)

Audio
ID                               : 2
Format                           : AAC
Format/Info                      : Advanced Audio Codec
Format profile                   : HE-AAC / LC
Codec ID                         : 40
Duration                         : 58mn 57s
Bit rate mode                    : Constant
Bit rate                         : 96.0 Kbps
Channel(s)                       : 2 channels
Channel positions                : Front: L R
Sampling rate                    : 48.0 KHz / 24.0 KHz
Compression mode                 : Lossy
Stream size                      : 39.9 MiB (6%)
